<svg width="47" height="12" viewBox="0 0 47 12" fill="none" xmlns="http://www.w3.org/2000/svg">
<path d="M7.17188 8.45117C7.36328 8.62695 7.45898 8.75 7.45898 8.82031C7.45898 9.14062 7.28711 9.48438 6.94336 9.85156C6.39258 10.4453 5.70312 10.8457 4.875 11.0527C4.59375 11.123 4.25586 11.1582 3.86133 11.1582C3.4707 11.1582 3.07617 11.1016 2.67773 10.9883C2.2793 10.875 1.94141 10.7148 1.66406 10.5078C1.10156 10.082 0.820312 9.51562 0.820312 8.80859C0.820312 7.74219 1.28125 6.86719 2.20312 6.18359C3.05859 5.55078 4.0625 5.21484 5.21484 5.17578C4.57031 4.76562 4.24805 4.2832 4.24805 3.72852C4.24805 3.18555 4.71094 2.73047 5.63672 2.36328C6.48438 2.03125 7.375 1.86523 8.30859 1.86523C8.99219 1.86523 9.44922 2.06445 9.67969 2.46289C9.75391 2.5957 9.79102 2.73828 9.79102 2.89062C9.79102 3.04297 9.76953 3.1875 9.72656 3.32422C9.6875 3.45703 9.63281 3.57812 9.5625 3.6875C9.39844 3.93359 9.20703 4.05664 8.98828 4.05664C8.85156 4.05664 8.68945 3.97852 8.50195 3.82227C8.45508 3.7832 8.41992 3.75 8.39648 3.72266C8.56836 3.51953 8.6543 3.27734 8.6543 2.99609C8.6543 2.67188 8.43555 2.50977 7.99805 2.50977C7.49805 2.50977 6.9668 2.59766 6.4043 2.77344C5.7168 2.99219 5.37305 3.26758 5.37305 3.59961C5.37305 4.12305 5.85547 4.57031 6.82031 4.94141C7.15625 5.07031 7.54688 5.18164 7.99219 5.27539C7.84375 5.8418 7.74609 6.1543 7.69922 6.21289C7.65234 6.26758 7.61914 6.29102 7.59961 6.2832C7.04102 6.0918 6.48047 5.99609 5.91797 5.99609C5.02344 5.99609 4.30469 6.21875 3.76172 6.66406C3.31641 7.02344 3.09375 7.46289 3.09375 7.98242C3.09375 8.35352 3.26172 8.65625 3.59766 8.89062C3.94141 9.12891 4.39453 9.24805 4.95703 9.24805C5.70703 9.24805 6.44531 8.98242 7.17188 8.45117ZM9.0293 10.5781C8.73242 10.2617 8.51367 9.90234 8.37305 9.5C8.23242 9.09375 8.16211 8.71875 8.16211 8.375C8.16211 8.03125 8.17969 7.83789 8.21484 7.79492C8.25391 7.75195 8.29688 7.71484 8.34375 7.68359C8.42578 7.62891 8.52539 7.58594 8.64258 7.55469C8.96289 8.375 9.55469 8.90234 10.418 9.13672C10.6953 9.21484 10.9746 9.25391 11.2559 9.25391C11.541 9.25391 11.793 9.23047 12.0117 9.18359C12.2344 9.13281 12.4277 9.05469 12.5918 8.94922C12.9473 8.71484 13.125 8.36133 13.125 7.88867C13.125 7.5293 12.9824 7.12891 12.6973 6.6875C12.5762 6.49219 12.4453 6.29883 12.3047 6.10742C12.1641 5.91211 12.0332 5.71484 11.9121 5.51562C11.627 5.05859 11.4844 4.66797 11.4844 4.34375C11.4844 4.01562 11.5293 3.74414 11.6191 3.5293C11.7129 3.31055 11.8398 3.11523 12 2.94336C12.1602 2.76758 12.3477 2.61328 12.5625 2.48047C12.7812 2.34766 13.0176 2.23633 13.2715 2.14648C13.7793 1.9668 14.3184 1.87695 14.8887 1.87695C15.4277 1.87695 15.8516 1.93359 16.1602 2.04688C16.4688 2.15625 16.6875 2.26953 16.8164 2.38672C16.9492 2.50391 17.0156 2.61914 17.0156 2.73242C17.0156 2.8457 16.998 2.94141 16.9629 3.01953C16.9277 3.09375 16.8828 3.16797 16.8281 3.24219C16.7109 3.39453 16.5957 3.50977 16.4824 3.58789C16.2129 3.1582 15.7637 2.85547 15.1348 2.67969C14.9316 2.625 14.7168 2.59766 14.4902 2.59766C14.2676 2.59766 14.0449 2.625 13.8223 2.67969C13.5996 2.73437 13.4043 2.8125 13.2363 2.91406C12.8574 3.13281 12.668 3.41797 12.668 3.76953C12.668 3.96094 12.7344 4.15234 12.8672 4.34375C13.0039 4.53516 13.1719 4.73438 13.3711 4.94141C13.5742 5.14844 13.793 5.36523 14.0273 5.5918C14.2617 5.81836 14.4785 6.06055 14.6777 6.31836C15.1504 6.91992 15.3867 7.51367 15.3867 8.09961C15.3867 8.68164 15.2773 9.1875 15.0586 9.61719C14.8398 10.043 14.5449 10.3984 14.1738 10.6836C13.4316 11.2656 12.4961 11.5566 11.3672 11.5566C10.4141 11.5566 9.63477 11.2305 9.0293 10.5781ZM16.8164 9.57031C16.8164 9.35938 16.877 9.16016 16.998 8.97266C17.123 8.78125 17.2871 8.59375 17.4902 8.41016C17.6934 8.22266 17.9258 8.0332 18.1875 7.8418C18.4531 7.65039 18.7266 7.44336 19.0078 7.2207C19.2891 6.99805 19.5684 6.75781 19.8457 6.5C20.127 6.23828 20.3828 5.94531 20.6133 5.62109C21.1367 4.89453 21.4512 4.08789 21.5566 3.20117C20.3457 3.31055 19.5371 3.42188 19.1309 3.53516C18.7246 3.64453 18.418 3.77344 18.2109 3.92188C18.0078 4.07031 17.9062 4.23633 17.9062 4.41992C17.9062 4.60352 17.9199 4.75391 17.9473 4.87109C17.9785 4.98438 18.0117 5.08789 18.0469 5.18164C18.082 5.27539 18.1133 5.35938 18.1406 5.43359C18.1719 5.50781 18.1875 5.57422 18.1875 5.63281C18.1875 5.73828 18.0547 5.85352 17.7891 5.97852C17.5469 6.0918 17.3691 6.14844 17.2559 6.14844C17.1465 6.14844 17.041 6.10938 16.9395 6.03125C16.8379 5.94922 16.7383 5.84375 16.6406 5.71484C16.4023 5.39844 16.2832 5.0918 16.2832 4.79492C16.2832 4.49805 16.3574 4.24609 16.5059 4.03906C16.6543 3.83203 16.8535 3.65234 17.1035 3.5C17.3574 3.34766 17.6543 3.2207 17.9941 3.11914C18.334 3.01758 18.6953 2.93164 19.0781 2.86133C19.4609 2.79102 19.8535 2.73437 20.2559 2.69141C20.6621 2.64844 21.0586 2.61133 21.4453 2.58008C21.832 2.54492 22.1973 2.51172 22.541 2.48047C22.8887 2.44922 23.1953 2.41211 23.4609 2.36914C24.0352 2.27539 24.3379 2.15039 24.3691 1.99414C24.4004 1.83789 24.4434 1.69336 24.498 1.56055C24.5527 1.42383 24.6172 1.30273 24.6914 1.19727C24.8555 0.962891 25.0332 0.845703 25.2246 0.845703C25.416 0.845703 25.5723 0.941406 25.6934 1.13281C25.8105 1.31641 25.8691 1.51172 25.8691 1.71875C25.8691 1.92188 25.8223 2.08398 25.7285 2.20508C25.6348 2.32617 25.5039 2.43359 25.3359 2.52734C25.1719 2.61719 24.9746 2.69531 24.7441 2.76172C24.5137 2.82812 24.2637 2.88477 23.9941 2.93164C23.5684 3.00586 22.9746 3.07617 22.2129 3.14258C22.2207 3.31445 22.2246 3.48047 22.2246 3.64062C22.2246 3.79688 22.2207 3.99219 22.2129 4.22656C22.209 4.45703 22.1914 4.74609 22.1602 5.09375C22.1328 5.44141 22.0957 5.78711 22.0488 6.13086C22.0059 6.47461 21.957 6.79688 21.9023 7.09766C21.793 7.72266 21.6836 8.16406 21.5742 8.42188C21.4688 8.67969 21.3438 8.92773 21.1992 9.16602C21.0547 9.4043 20.8945 9.63086 20.7188 9.8457C20.5469 10.0605 20.3633 10.2617 20.168 10.4492C19.9727 10.6328 19.7734 10.793 19.5703 10.9297C19.1406 11.2227 18.752 11.3691 18.4043 11.3691C18.0605 11.3691 17.709 11.1719 17.3496 10.7773C16.9941 10.3867 16.8164 9.98438 16.8164 9.57031Z" fill="#71CD14"/>
<path d="M29.5781 11H27.8789V2H29.5781V11ZM32.7656 11H31.0664V4.66016H32.7656V11ZM30.9668 3.01953C30.9668 2.76563 31.0508 2.55664 31.2188 2.39258C31.3906 2.22852 31.623 2.14648 31.916 2.14648C32.2051 2.14648 32.4355 2.22852 32.6074 2.39258C32.7793 2.55664 32.8652 2.76563 32.8652 3.01953C32.8652 3.27734 32.7773 3.48828 32.6016 3.65234C32.4297 3.81641 32.2012 3.89844 31.916 3.89844C31.6309 3.89844 31.4004 3.81641 31.2246 3.65234C31.0527 3.48828 30.9668 3.27734 30.9668 3.01953ZM35.7246 4.66016L35.7773 5.39258C36.2305 4.82617 36.8379 4.54297 37.5996 4.54297C38.2715 4.54297 38.7715 4.74023 39.0996 5.13477C39.4277 5.5293 39.5957 6.11914 39.6035 6.9043V11H37.9102V6.94531C37.9102 6.58594 37.832 6.32617 37.6758 6.16602C37.5195 6.00195 37.2598 5.91992 36.8965 5.91992C36.4199 5.91992 36.0625 6.12305 35.8242 6.5293V11H34.1309V4.66016H35.7246ZM43.8105 11.1172C42.8809 11.1172 42.123 10.832 41.5371 10.2617C40.9551 9.69141 40.6641 8.93164 40.6641 7.98242V7.81836C40.6641 7.18164 40.7871 6.61328 41.0332 6.11328C41.2793 5.60938 41.627 5.22266 42.0762 4.95312C42.5293 4.67969 43.0449 4.54297 43.623 4.54297C44.4902 4.54297 45.1719 4.81641 45.668 5.36328C46.168 5.91016 46.418 6.68555 46.418 7.68945V8.38086H42.3809C42.4355 8.79492 42.5996 9.12695 42.873 9.37695C43.1504 9.62695 43.5 9.75195 43.9219 9.75195C44.5742 9.75195 45.084 9.51562 45.4512 9.04297L46.2832 9.97461C46.0293 10.334 45.6855 10.6152 45.252 10.8184C44.8184 11.0176 44.3379 11.1172 43.8105 11.1172ZM43.6172 5.91406C43.2812 5.91406 43.0078 6.02734 42.7969 6.25391C42.5898 6.48047 42.457 6.80469 42.3984 7.22656H44.7539V7.0918C44.7461 6.7168 44.6445 6.42773 44.4492 6.22461C44.2539 6.01758 43.9766 5.91406 43.6172 5.91406Z" fill="black"/>
</svg>
